# AST/ASF file generated using VICON BodyLanguage
# -----------------------------------------------
:version 1.10
:name VICON
:units
  mass 1.0
  length 0.45
  angle deg
:documentation
   .ast/.asf automatically generated from VICON data using
   VICON BodyBuilder and BodyLanguage model FoxedUp or BRILLIANT.MOD
:root
   order TX TY TZ RX RY RZ
   axis XYZ
   position 0 0 0  
   orientation 0 0 0 
:bonedata
  begin
     id 1 
     name lhipjoint
     direction 0.63403 -0.759788 0.143974 
     length 2.51904 
     axis 0 0 0  XYZ
  end
  begin
     id 2 
     name lfemur
     direction 0.34202 -0.939693 0  
     length 7.42313  
     axis 0 0 20  XYZ
    dof rx ry rz
    limits (-160.0 20.0)
           (-70.0 70.0)
           (-60.0 70.0)
  end
  begin
     id 3 
     name ltibia
     direction 0.34202 -0.939693 0   
     length 8.10141   
     axis 0 0 20   XYZ
    dof rx
    limits (-10.0 170.0)
  end
  begin
     id 4 
     name lfoot
     direction 0.0927455 -0.254816 0.962532   
     length 2.14078   
     axis -90 7.62852e-016 20   XYZ
    dof rx rz
    limits (-45.0 90.0)
           (-70.0 20.0)
  end
  begin
     id 5 
     name ltoes
     direction 1.53556e-011 -4.21949e-011 1   
     length 1.07182   
     axis -90 7.62852e-016 20   XYZ
    dof rx
    limits (-90.0 20.0)
  end
  begin
     id 6 
     name rhipjoint
     direction -0.659892 -0.738223 0.139888   
     length 2.59263  
     axis 0 0 0  XYZ 
  end
  begin
     id 7 
     name rfemur
     direction -0.34202 -0.939693 0   
     length 7.58575   
     axis 0 0 -20   XYZ
    dof rx ry rz
    limits (-160.0 20.0)
           (-70.0 70.0)
           (-70.0 60.0)
  end
  begin
     id 8 
     name rtibia
     direction -0.34202 -0.939693 0   
     length 8.19358   
     axis 0 0 -20   XYZ
    dof rx
    limits (-10.0 170.0)
 end
 begin
     id 9 
     name rfoot
     direction -0.0856543 -0.235333 0.968133   
     length 2.13415  
     axis -90 -7.62852e-016 -20   XYZ
    dof rx rz
    limits (-45.0 90.0)
           (-20.0 70.0)
  end
  begin
     id 10 
     name rtoes
     direction -1.53551e-011 -4.21811e-011 1   
     length 1.07055   
     axis -90 -7.62852e-016 -20   XYZ
    dof rx
    limits (-90.0 20.0)
  end
  begin
     id 11 
     name lowerback
     direction 0.025219 0.998394 -0.0507326   
     length 1.91844   
     axis 0 0 0   XYZ
    dof rx ry rz
    limits (-20.0 45.0)
           (-30.0 30.0)
           (-30.0 30.0)
  end
  begin
     id 12 
     name upperback
     direction 0.0213103 0.99967 -0.0143101   
     length 1.92246   
     axis 0 0 0   XYZ
    dof rx ry rz
    limits (-20.0 45.0)
           (-30.0 30.0)
           (-30.0 30.0)
  end
  begin
     id 13 
     name thorax
     direction 0.00920974 0.99991 0.00971518   
     length 1.92239   
     axis 0 0 0   XYZ
    dof rx ry rz
    limits (-20.0 45.0)
           (-30.0 30.0)
           (-30.0 30.0)
  end
  begin
     id 14 
     name lowerneck
     direction 0.0598257 0.997249 0.0437612   
     length 3.13679   
     axis 0 0 0   XYZ
    dof rx ry rz
    limits (-20.0 45.0)
           (-30.0 30.0)
           (-30.0 30.0)
  end
  begin
     id 15 
     name upperneck
     direction -0.035342 0.999338 0.00863891   
     length 3.16283   
     axis 0 0 0   XYZ
    dof rx ry rz
    limits (-20.0 45.0)
           (-30.0 30.0)
           (-30.0 30.0)
  end
  begin
     id 16
     name head
     direction 0.37144 0.811566 0.450991  
     length 1.2838  
     axis 0 0 0   XYZ
    dof rx ry rz
    limits (-20.0 45.0)
           (-30.0 30.0)
           (-30.0 30.0)
  end
  begin
     id 17 
     name lclavicle
     direction 0.961094 0.274654 -0.0293862  
     length 3.63466  
     axis 0 0 0   XYZ
    dof ry rz
    limits (-20.0 10.0)
           (0.0 20.0)
  end
  begin
     id 18 
     name lhumerus
     direction 1 -4.48963e-011 1.10303e-027   
     length 5.12842   
     axis 180 -30 -90   XYZ
    dof rx ry rz
    limits (-60.0 90.0)
           (-90.0 90.0)
           (-90.0 90.0)
  end
  begin
     id 19
     name lradius
     direction 1 -4.48968e-011 4.13199e-027   
     length 3.47396   
     axis 180 -30 -90   XYZ
    dof rx
    limits (-10.0 170.0)
  end
  begin
     id 20
     name lwrist
     direction 1 -4.48948e-011 9.12708e-027   
     length 1.73698   
     axis -6.84618e-015 90 90   XYZ
    dof ry
    limits (-180.0 0.0)
 end
  begin
     id 21 
     name lhand
     direction 1 -4.49057e-011 1.82749e-026   
     length 0.728607   
     axis -1.16502e-014 90 90   XYZ
    dof rx rz
    limits (-90.0 90.0)
           (-45.0 45.0)
  end
  begin
     id 22 
     name lfingers
     direction 1 -4.48912e-011 3.64949e-026   
     length 0.587422   
     axis -2.33008e-014 90 90   XYZ
    dof rx
    limits (0.0 90.0)
  end
  begin
     id 23
     name lthumb
     direction 0.707107 -6.34995e-011 0.707107   
     length 0.843424   
     axis -90 45 5.69224e-014   XYZ
    dof rx rz
    limits (-45.0 45.0)
           (-45.0 45.0)
  end
  begin
     id 24 
     name rclavicle
     direction -0.90514 0.421881 -0.0523369   
     length 3.57139  
     axis 0 0 0   XYZ 
    dof ry rz
    limits (-10.0 20.0)
           (-20.0 0.0)
  end
  begin
     id 25 
     name rhumerus
     direction -1 -4.48954e-011 -1.76662e-027  
     length 5.48477   
     axis 180 30 90   XYZ
    dof rx ry rz
    limits (-90.0 60.0)
           (-90.0 90.0)
           (-90.0 90.0)
  end
  begin
     id 26 
     name rradius
     direction -1 -4.48982e-011 1.26841e-027   
     length 3.47856   
     axis 180 30 90   XYZ
    dof rx
    limits (-10.0 170.0)
  end
  begin
     id 27 
     name rwrist
     direction -1 -4.49037e-011 9.13554e-027   
     length 1.73928   
     axis -6.84618e-015 -90 -90   XYZ
    dof ry
    limits (-180.0 0.0)
  end
  begin
     id 28
     name rhand
     direction -1 -4.48871e-011 1.82397e-026   
     length 0.709974   
     axis -1.16502e-014 -90 -90   XYZ
    dof rx rz
    limits (-90.0 90.0)
           (-45.0 45.0)
  end
  begin
     id 29
     name rfingers
     direction -1 -4.48994e-011 3.65258e-026   
     length 0.572399   
     axis -2.33008e-014 -90 -90   XYZ
    dof rx
    limits (0.0 90.0)
  end
  begin
     id 30
     name rthumb
     direction -0.707107 -6.34861e-011 0.707107   
     length 0.821855   
     axis -90 -45 -5.69224e-014   XYZ
    dof rx rz
    limits (-45.0 45.0)
           (-45.0 45.0)
  end
:hierarchy
  begin
    root lhipjoint rhipjoint lowerback
    lhipjoint lfemur
    lfemur ltibia
    ltibia lfoot
    lfoot ltoes
    rhipjoint rfemur
    rfemur rtibia
    rtibia rfoot
    rfoot rtoes
    lowerback upperback
    upperback thorax
    thorax lowerneck lclavicle rclavicle
    lowerneck upperneck
    upperneck head
    lclavicle lhumerus
    lhumerus lradius
    lradius lwrist
    lwrist lhand lthumb
    lhand lfingers
    rclavicle rhumerus
    rhumerus rradius
    rradius rwrist
    rwrist rhand rthumb
    rhand rfingers
  end

#!OML:ASF F:\VICON\USERDATA\INSTALL\Justin1\Justin1.ASF
:FULLY-SPECIFIED
:DEGREES
2077
root 0.32078 18.2317 -3.58356 4.38541 -0.500862 -3.64183
lowerback 4.27785 -0.867687 2.73567
upperback -1.63243 -0.871323 3.23951
thorax -4.07968 -0.460189 1.88186
lowerneck -11.2447 -6.2602 -6.65405
upperneck 15.4172 -7.28446 -0.278761
head 6.80279 -3.92128 0.310782
rclavicle -2.14439e-014 7.15625e-015
rhumerus -32.0232 -3.96181 -82.2356
rradius 40.9457
rwrist -8.25078
rhand -22.8779 12.23
rfingers 7.12502
rthumb 3.56102 -17.72
lclavicle -2.14439e-014 7.15625e-015
lhumerus -39.5537 13.8894 83.2642
lradius 37.5939
lwrist -9.43633
lhand -11.0503 29.1261
lfingers 7.12502
lthumb 14.972 58.5649
rfemur -15.2606 7.57929 26.7535
rtibia 32.5861
rfoot -17.5407 -16.1864
rtoes 25.738
lfemur -15.0226 -8.62385 -18.4949
ltibia 29.2831
lfoot -16.4525 8.34715
ltoes 8.50253
2078
root 0.321809 18.2309 -3.58497 4.38473 -0.462759 -3.75292
lowerback 4.31379 -0.894239 2.84622
upperback -1.66465 -0.895589 3.27401
thorax -4.13473 -0.474957 1.85905
lowerneck -11.0749 -6.48885 -6.82976
upperneck 15.3154 -7.58135 -0.262356
head 6.75853 -4.07203 0.321081
rclavicle 4.69629e-015 9.54166e-015
rhumerus -32.1422 -4.00823 -82.1877
rradius 40.8917
rwrist -8.23176
rhand -23.0171 12.0762
rfingers 7.12502
rthumb 3.42656 -17.876
lclavicle 4.69629e-015 9.54166e-015
lhumerus -39.6514 13.9796 83.219
lradius 37.47
lwrist -9.4153
lhand -11.1459 29.1983
lfingers 7.12502
lthumb 14.88 58.6439
rfemur -15.2779 7.58077 26.8747
rtibia 32.5968
rfoot -17.5361 -16.2399
rtoes 25.7467
lfemur -15.0508 -8.59681 -18.368
ltibia 29.2961
lfoot -16.4377 8.31798
ltoes 8.41354
2079
root 0.32267 18.2306 -3.58555 4.40921 -0.441147 -3.78672
lowerback 4.29226 -0.906294 2.88892
upperback -1.68339 -0.90963 3.26855
thorax -4.1427 -0.483225 1.83049
lowerneck -10.8325 -6.77842 -7.12416
upperneck 15.1479 -7.97807 -0.0613761
head 6.69732 -4.26168 0.402331
rclavicle -1.52319e-014 1.03368e-014
rhumerus -32.2137 -4.16685 -82.1637
rradius 40.7624
rwrist -8.14824
rhand -23.1381 11.9673
rfingers 7.12502
rthumb 3.30974 -17.9867
lclavicle -1.52319e-014 1.03368e-014
lhumerus -39.7568 14.0032 83.1442
lradius 37.3973
lwrist -9.33779
lhand -11.2432 29.2158
lfingers 7.12502
lthumb 14.7862 58.6683
rfemur -15.3295 7.58507 26.9059
rtibia 32.6265
rfoot -17.5433 -16.2773
rtoes 25.8443
lfemur -15.077 -8.58668 -18.3275
ltibia 29.2851
lfoot -16.431 8.29072
ltoes 8.44286
2080
root 0.323844 18.2301 -3.58674 4.45737 -0.449409 -3.73909
lowerback 4.26676 -0.914698 2.85024
upperback -1.71679 -0.923906 3.24678
thorax -4.16246 -0.489796 1.83079
lowerneck -10.4875 -7.12027 -7.53563
upperneck 14.868 -8.44927 0.223483
head 6.59648 -4.48621 0.526638
rclavicle 9.0944e-015 -4.6118e-014
rhumerus -32.2802 -4.26281 -82.1344
rradius 40.5542
rwrist -8.09886
rhand -23.1399 12.3727
rfingers 7.12502
rthumb 3.30797 -17.5814
lclavicle 9.0944e-015 -4.6118e-014
lhumerus -39.8474 14.1329 83.0395
lradius 37.2601
lwrist -9.46563
lhand -11.4091 29.196
lfingers 7.12502
lthumb 14.6263 58.6602
rfemur -15.4068 7.58505 26.8396
rtibia 32.6519
rfoot -17.511 -16.2777
rtoes 25.7517
lfemur -15.1464 -8.5667 -18.3664
ltibia 29.2734
lfoot -16.4621 8.18382
ltoes 8.94273
2081
root 0.325175 18.2305 -3.58678 4.44363 -0.471942 -3.6592
lowerback 4.27818 -0.922896 2.77691
upperback -1.6925 -0.941323 3.20545
thorax -4.14273 -0.496935 1.83009
lowerneck -10.2279 -7.49445 -7.793
upperneck 14.4973 -8.95794 0.350784
head 6.47139 -4.7316 0.572909
rclavicle 7.87684e-015 -3.73715e-014
rhumerus -32.2569 -4.34726 -82.1425
rradius 40.3144
rwrist -8.09194
rhand -23.0632 12.9326
rfingers 7.12502
rthumb 3.38204 -17.0203
lclavicle 7.87684e-015 -3.73715e-014
lhumerus -39.8572 14.1351 82.9941
lradius 37.1912
lwrist -9.44296
lhand -11.5049 29.1449
lfingers 7.12502
lthumb 14.5341 58.6158
rfemur -15.4195 7.58687 26.746
rtibia 32.6955
rfoot -17.5512 -16.2356
rtoes 25.8788
lfemur -15.1307 -8.521 -18.4567
ltibia 29.2278
lfoot -16.4328 8.11741
ltoes 8.9285
2082
root 0.32816 18.2319 -3.58493 4.44961 -0.48579 -3.62291
lowerback 4.2446 -0.939906 2.76385
upperback -1.65995 -0.969232 3.17105
thorax -4.08983 -0.510643 1.8025
lowerneck -9.98464 -7.86395 -7.9516
upperneck 14.0786 -9.46043 0.386317
head 6.32615 -4.97545 0.577294
rclavicle 1.83379e-014 -1.11319e-014
rhumerus -32.2353 -4.33136 -82.1782
rradius 40.1698
rwrist -8.18555
rhand -22.9151 12.8207
rfingers 7.12502
rthumb 3.52512 -17.1299
lclavicle 1.83379e-014 -1.11319e-014
lhumerus -39.8406 14.1857 82.9289
lradius 37.1079
lwrist -9.4032
lhand -11.464 29.1802
lfingers 7.12502
lthumb 14.5734 58.6482
rfemur -15.4383 7.54263 26.6953
rtibia 32.7283
rfoot -17.5515 -16.1977
rtoes 25.5492
lfemur -15.0857 -8.55237 -18.5018
ltibia 29.1926
lfoot -16.4918 8.11801
ltoes 9.19818
2083
root 0.329319 18.2328 -3.58408 4.48627 -0.463183 -3.54629
lowerback 4.19908 -0.965007 2.69644
upperback -1.66653 -1.0103 3.13029
thorax -4.06979 -0.52981 1.80026
lowerneck -9.79375 -8.22634 -8.20089
upperneck 13.8904 -9.95118 0.522625
head 6.27439 -5.21355 0.621292
rclavicle 1.31695e-014 -2.46493e-014
rhumerus -32.2889 -4.37786 -82.16
rradius 40.0308
rwrist -8.14373
rhand -22.9427 12.3231
rfingers 7.12502
rthumb 3.49845 -17.628
lclavicle 1.31695e-014 -2.46493e-014
lhumerus -39.9716 14.286 82.8212
lradius 37.1211
lwrist -9.38449
lhand -11.1852 29.4375
lfingers 7.12502
lthumb 14.8421 58.886
rfemur -15.4845 7.53391 26.6007
rtibia 32.7297
rfoot -17.5229 -16.2155
rtoes 25.7419
lfemur -15.0827 -8.5825 -18.5794
ltibia 29.1872
lfoot -16.5551 8.06973
ltoes 9.48743
2084
root 0.32844 18.233 -3.58405 4.51471 -0.442511 -3.62179
lowerback 4.16265 -0.975018 2.75088
upperback -1.69323 -1.02048 3.14857
thorax -4.07757 -0.536153 1.78924
lowerneck -9.51321 -8.64586 -8.47983
upperneck 13.7154 -10.5155 0.602338
head 6.21576 -5.49399 0.648454
rclavicle 1.47101e-014 -2.38542e-015
rhumerus -32.3927 -4.50296 -82.0929
rradius 39.8638
rwrist -7.98724
rhand -23.2254 11.848
rfingers 7.12502
rthumb 3.22539 -18.1073
lclavicle 1.47101e-014 -2.38542e-015
lhumerus -40.321 14.3181 82.7767
lradius 37.3316
lwrist -9.36572
lhand -11.1475 30.1659
lfingers 7.12502
lthumb 14.8784 59.6117
rfemur -15.5134 7.55459 26.6853
rtibia 32.733
rfoot -17.4885 -16.2716
rtoes 25.9578
lfemur -15.0958 -8.50549 -18.4897
ltibia 29.1864
lfoot -16.5812 7.97997
ltoes 9.55048
2085
root 0.327833 18.2331 -3.58322 4.51237 -0.425189 -3.72519
lowerback 4.17034 -1.00239 2.84739
upperback -1.68969 -1.05052 3.16454
thorax -4.07963 -0.553377 1.75421
lowerneck -9.12862 -9.05055 -8.70448
upperneck 13.3324 -11.0738 0.655584
head 6.07022 -5.76893 0.670681
rclavicle -6.23687e-015 9.54166e-015
rhumerus -32.4127 -4.52445 -82.0985
rradius 39.7216
rwrist -7.97355
rhand -23.4429 11.2514
rfingers 7.12502
rthumb 3.01534 -18.707
lclavicle -6.23687e-015 9.54166e-015
lhumerus -40.6521 14.3491 82.7156
lradius 37.5087
lwrist -9.36916
lhand -11.2949 30.2864
lfingers 7.12502
lthumb 14.7364 59.7426
rfemur -15.5 7.58142 26.8018
rtibia 32.7311
rfoot -17.5388 -16.2506
rtoes 26.4261
lfemur -15.0817 -8.43625 -18.381
ltibia 29.1898
lfoot -16.5688 7.94547
ltoes 9.07887
2086
root 0.328118 18.2342 -3.58291 4.56967 -0.383841 -3.55308
lowerback 4.16111 -1.05196 2.64769
upperback -1.70223 -1.13052 3.10899
thorax -4.08345 -0.588762 1.81456
lowerneck -8.96976 -9.47284 -8.97981
upperneck 13.1773 -11.6299 0.718206
head 6.04072 -6.04576 0.687232
rclavicle 1.87355e-014 -3.18055e-015
rhumerus -32.4087 -4.48359 -82.1547
rradius 39.5666
rwrist -8.01909
rhand -23.429 11.1079
rfingers 7.12502
rthumb 3.02877 -18.8503
lclavicle 1.87355e-014 -3.18055e-015
lhumerus -40.7841 14.4181 82.6361
lradius 37.4867
lwrist -9.45176
lhand -11.4169 30.1299
lfingers 7.12502
lthumb 14.6189 59.5947
rfemur -15.5804 7.53413 26.6051
rtibia 32.7544
rfoot -17.5272 -16.2521
rtoes 26.4448
lfemur -15.1436 -8.4941 -18.5485
ltibia 29.1756
lfoot -16.5738 7.86973
ltoes 9.76185
2087
root 0.329299 18.2351 -3.58345 4.59497 -0.347081 -3.50555
lowerback 4.15768 -1.10375 2.5983
upperback -1.67119 -1.20469 3.09099
thorax -4.04765 -0.624408 1.82848
lowerneck -8.94156 -9.88889 -9.24736
upperneck 13.0745 -12.167 0.787599
head 6.05056 -6.31186 0.697864
rclavicle -3.1085e-014 1.98785e-014
rhumerus -32.3265 -4.43781 -82.2017
rradius 39.3461
rwrist -8.03455
rhand -23.2196 11.2718
rfingers 7.12502
rthumb 3.23101 -18.6835
lclavicle -3.1085e-014 1.98785e-014
lhumerus -40.7605 14.46 82.5828
lradius 37.339
lwrist -9.73412
lhand -11.3726 30.1352
lfingers 7.12502
lthumb 14.6615 59.5969
rfemur -15.6243 7.52742 26.5477
rtibia 32.7714
rfoot -17.5681 -16.2765
rtoes 26.2075
lfemur -15.183 -8.57019 -18.5856
ltibia 29.149
lfoot -16.5795 7.8503
ltoes 9.78571
2088
root 0.330609 18.2356 -3.58434 4.60433 -0.341293 -3.43665
lowerback 4.1844 -1.13139 2.54671
upperback -1.68604 -1.24466 3.04126
thorax -4.07754 -0.64373 1.80987
lowerneck -8.54282 -10.2381 -9.45111
upperneck 12.7269 -12.6711 0.931733
head 5.92079 -6.55421 0.751879
rclavicle 1.98785e-016 1.70955e-014
rhumerus -32.3885 -4.49344 -82.2395
rradius 39.1713
rwrist -8.00512
rhand -23.124 11.3683
rfingers 7.12502
rthumb 3.32335 -18.5856
lclavicle 1.98785e-016 1.70955e-014
lhumerus -40.8426 14.4348 82.4804
lradius 37.148
lwrist -9.92412
lhand -11.2122 30.0176
lfingers 7.12502
lthumb 14.8161 59.4679
rfemur -15.658 7.49041 26.4635
rtibia 32.8057
rfoot -17.6003 -16.2622
rtoes 26.0438
lfemur -15.1574 -8.57536 -18.6631
ltibia 29.0853
lfoot -16.5448 7.83386
ltoes 9.62887
2089
root 0.33207 18.2358 -3.58137 4.60932 -0.341677 -3.44844
lowerback 4.18955 -1.16992 2.56639
upperback -1.73516 -1.29339 3.02561
thorax -4.13176 -0.668971 1.78764
lowerneck -7.87885 -10.5744 -9.67489
upperneck 12.2242 -13.1867 1.1027
head 5.70372 -6.80253 0.836203
rclavicle 2.28602e-015 2.70347e-014
rhumerus -32.505 -4.51387 -82.2349
rradius 38.9557
rwrist -7.90578
rhand -23.0034 11.4877
rfingers 7.12502
rthumb 3.43984 -18.4643
lclavicle 2.28602e-015 2.70347e-014
lhumerus -41.1006 14.5262 82.3053
lradius 37.0624
lwrist -9.9257
lhand -11.0834 30.1936
lfingers 7.12502
lthumb 14.9401 59.6348
rfemur -15.6559 7.48335 26.47
rtibia 32.8223
rfoot -17.6206 -16.2755
rtoes 25.8647
lfemur -15.1062 -8.58392 -18.6524
ltibia 29.0293
lfoot -16.5728 7.78499
ltoes 10.0447
2090
root 0.33189 18.2365 -3.57908 4.61292 -0.338421 -3.44404
lowerback 4.13987 -1.21099 2.52465
upperback -1.72044 -1.35339 3.0323
thorax -4.08644 -0.697477 1.82089
lowerneck -7.42294 -10.9288 -9.8205
upperneck 11.7869 -13.6948 1.12153
head 5.52805 -7.05288 0.852776
rclavicle 1.44119e-015 1.78906e-014
rhumerus -32.413 -4.54624 -82.2057
rradius 38.6013
rwrist -7.71279
rhand -22.8955 11.4859
rfingers 7.12502
rthumb 3.54405 -18.4644
lclavicle 1.44119e-015 1.78906e-014
lhumerus -41.2496 14.6756 82.2013
lradius 37.0253
lwrist -9.92715
lhand -11.0152 30.4866
lfingers 7.12502
lthumb 15.0058 59.9229
rfemur -15.663 7.51955 26.4657
rtibia 32.8459
rfoot -17.6877 -16.2474
rtoes 26.0518
lfemur -15.0776 -8.5595 -18.6574
ltibia 28.9723
lfoot -16.5589 7.78446
ltoes 10.2586
2091
root 0.331986 18.238 -3.57861 4.64611 -0.343291 -3.35817
lowerback 4.06761 -1.23876 2.40679
upperback -1.68994 -1.40234 3.02013
thorax -4.01047 -0.718717 1.87524
lowerneck -7.17961 -11.2639 -10.0013
upperneck 11.5175 -14.1566 1.17705
head 5.44451 -7.27995 0.873087
rclavicle -2.48481e-016 8.74653e-015
rhumerus -32.2933 -4.62694 -82.178
rradius 38.2912
rwrist -7.66416
rhand -22.7958 11.3359
rfingers 7.12502
rthumb 3.64028 -18.6128
lclavicle -2.48481e-016 8.74653e-015
lhumerus -41.2612 14.7526 82.1662
lradius 36.9077
lwrist -9.97227
lhand -11.0636 30.4065
lfingers 7.12502
lthumb 14.9592 59.8463
rfemur -15.7116 7.54763 26.3658
rtibia 32.8669
rfoot -17.6992 -16.2116
rtoes 26.2172
lfemur -15.0931 -8.63726 -18.7516
ltibia 28.921
lfoot -16.4783 7.92833
ltoes 9.73348
